<svg class="svg_logo" width="400" height="150" viewBox="0 0 400 150" fill="none" xmlns="http://www.w3.org/2000/svg">
<path d="M91.7668 37.805C91.8593 31.9355 88.7858 28 84.1734 28C79.4517 28 77.3116 29.7028 75.0243 33.1422C74.8813 33.3608 74.6795 33.9074 74.5113 34.1302C74.238 33.9999 73.8344 33.7098 73.5611 33.6005C37.7047 18.8719 15.7486 42.472 15.16 66.3286C14.5209 92.565 40.0088 112.398 71.6775 100.104C72.2072 99.9019 73.0145 99.3175 73.6158 99.1157C73.4139 99.738 73.3803 100.634 73.1617 101.239C69.6299 111.666 62.768 115.656 51.6638 116.59C44.3437 117.191 36.6788 114.668 31.5367 109.144C27.1471 104.401 22.2867 104.657 19.2804 107.365C16.3709 110.001 15.4543 113.714 18.6203 118.108C25.932 128.262 39.0922 133.29 51.5797 133.114C72.6025 132.786 89.9462 121.551 91.628 94.9868C92.6792 78.3326 91.5229 55.1151 91.7668 37.805ZM53.5054 88.0661C49.2038 88.0678 44.9983 86.7936 41.4209 84.4048C37.8435 82.016 35.055 78.6198 33.408 74.6459C31.7611 70.672 31.3297 66.299 32.1685 62.0799C33.0073 57.8608 35.0786 53.9853 38.1203 50.9435C41.1621 47.9018 45.0376 45.8306 49.2567 44.9918C53.4757 44.1529 57.8488 44.5843 61.8227 46.2312C65.7966 47.8782 69.1927 50.6667 71.5816 54.2441C73.9704 57.8215 75.2446 62.027 75.2429 66.3286C75.2418 72.0927 72.9518 77.6204 68.8764 81.6967C64.801 85.7729 59.2737 88.0639 53.5096 88.0661H53.5054Z" fill="#212121"/>
<path d="M233.078 81.7467C233.078 95.6217 222.032 104.582 204.932 104.582C194.547 104.582 185.028 100.886 178.082 94.0703C177.272 93.3949 176.624 92.5456 176.187 91.5854C175.751 90.6253 175.536 89.579 175.559 88.5245C175.543 86.539 176.313 84.6278 177.702 83.2093C179.092 81.7908 180.987 80.9807 182.972 80.9563C184.822 80.9563 186.394 81.5701 188.177 82.9745C193.509 87.5616 199.244 89.8993 205.214 89.8993C211.651 89.8993 215.814 87.0318 215.814 82.6129C215.814 78.4714 212.16 76.8779 207.442 74.8387L199.416 71.5045C187.542 66.7029 179.655 61.136 179.655 49.6408C179.655 36.6067 190.065 28.164 206.143 28.164C214.897 28.164 223.264 30.9895 229.104 35.9634C231.206 37.5528 232.333 39.6592 232.333 42.081C232.35 44.026 231.595 45.8982 230.234 47.2877C228.873 48.6771 227.017 49.4704 225.072 49.4937C223.71 49.4937 222.226 48.8966 220.228 47.5596C215.746 44.4776 210.84 42.8421 205.996 42.8421C200.219 42.8421 196.906 45.1588 196.906 49.1951C196.906 53.2315 200.623 54.9596 205.466 56.8516L212.728 59.8663C219.034 62.4142 224.113 65.0505 227.62 68.4688C228.066 68.8892 228.461 69.3391 228.881 69.7848C229.302 70.2305 229.626 70.7014 229.966 71.1891C230.307 71.6768 230.622 72.1646 230.921 72.6775C231.288 73.314 231.6 73.9807 231.854 74.6705C231.984 74.9672 232.091 75.2737 232.174 75.5871C232.564 76.7595 232.827 77.9703 232.96 79.1988C233.017 79.6171 233.052 80.0381 233.065 80.4601C233.057 80.8764 233.078 81.301 233.078 81.7467Z" fill="#212121"/>
<path d="M307.678 37.5401V70.8485C307.678 90.7108 294.001 104.582 274.395 104.582C254.634 104.582 240.809 90.7066 240.809 70.8485V37.5401C240.809 32.2045 244.677 28.3237 250.034 28.3237C255.218 28.3237 259.103 32.297 259.103 37.5401V72.5051C259.103 81.4482 265.54 87.9484 274.399 87.9484C283.086 87.9484 289.372 81.4482 289.372 72.5051V37.5401C289.372 32.2087 293.261 28.3237 298.622 28.3237C303.793 28.3237 307.678 32.297 307.678 37.5401Z" fill="#212121"/>
<path d="M384.848 57.3813V95.2223C384.848 100.743 381.131 104.59 375.779 104.59C370.594 104.59 366.709 100.575 366.709 95.2223V60.1017C366.709 50.9232 360.55 44.507 351.712 44.507C342.874 44.507 336.441 51.0745 336.441 60.1017V95.2138C336.441 100.65 332.615 104.582 327.347 104.582C322.078 104.582 318.147 100.566 318.147 95.2138V37.5401C318.147 32.297 322.036 28.3237 327.199 28.3237C331.32 28.3237 334.738 31.0861 335.697 35.2276L336.117 36.9893L337.454 35.7574C342.706 30.9432 349.908 28.3237 357.766 28.3237C374.227 28.3237 384.848 39.7307 384.848 57.3813Z" fill="#212121"/>
<path d="M136.169 47.2119C132.48 47.2095 128.874 48.3008 125.806 50.3479C122.738 52.395 120.346 55.3058 118.933 58.7122C117.52 62.1185 117.15 65.8672 117.868 69.4841C118.587 73.101 120.363 76.4234 122.971 79.0311C125.579 81.6389 128.902 83.4146 132.52 84.1338C136.138 84.853 139.887 84.4832 143.295 83.0714C146.702 81.6595 149.614 79.2689 151.663 76.2021C153.711 73.1353 154.803 69.53 154.801 65.8425C154.798 60.9029 152.834 56.1665 149.34 52.6734C145.847 49.1803 141.11 47.2161 136.169 47.2119ZM136.147 77.8418C133.77 77.8405 131.447 77.1347 129.472 75.8135C127.497 74.4923 125.958 72.6152 125.049 70.4195C124.141 68.2238 123.905 65.8082 124.37 63.4782C124.836 61.1482 125.982 59.0085 127.664 57.3298C129.345 55.651 131.488 54.5086 133.819 54.0471C136.15 53.5855 138.566 53.8255 140.761 54.7368C142.956 55.648 144.831 57.1895 146.15 59.1664C147.468 61.1432 148.171 63.4665 148.168 65.8425C148.163 69.0266 146.894 72.0786 144.641 74.3284C142.387 76.5782 139.332 77.8418 136.147 77.8418Z" fill="black"/>
<path d="M136.169 37.8483C130.627 37.8421 125.208 39.4795 120.597 42.5532C115.986 45.627 112.391 49.9989 110.266 55.1159C108.142 60.2329 107.583 65.8649 108.661 71.2994C109.739 76.7338 112.405 81.7265 116.323 85.6456C120.24 89.5647 125.232 92.2341 130.667 93.3161C136.102 94.3981 141.736 93.844 146.856 91.724C151.976 89.604 156.352 86.0132 159.43 81.4062C162.508 76.7991 164.151 71.3828 164.149 65.8425C164.146 58.4225 161.198 51.3068 155.952 46.0581C150.706 40.8093 143.591 37.8566 136.169 37.8483ZM136.169 87.1025C131.963 87.1025 127.851 85.8556 124.354 83.5195C120.857 81.1834 118.131 77.8631 116.521 73.9783C114.912 70.0936 114.491 65.8189 115.311 61.6949C116.132 57.5708 118.157 53.7827 121.131 50.8094C124.105 47.8362 127.895 45.8113 132.02 44.991C136.145 44.1707 140.421 44.5917 144.307 46.2008C148.192 47.8099 151.514 50.5349 153.851 54.0311C156.187 57.5273 157.434 61.6377 157.434 65.8425C157.43 71.4797 155.188 76.8849 151.201 80.871C147.214 84.8571 141.807 87.0983 136.169 87.1025Z" fill="black"/>
<path d="M136 27C128.287 27 120.746 29.2867 114.333 33.5708C107.919 37.855 102.921 43.9443 99.9687 51.0686C97.0169 58.1929 96.2446 66.0323 97.7494 73.5955C99.2542 81.1586 102.969 88.1058 108.423 93.5585C113.877 99.0113 120.826 102.725 128.391 104.229C135.957 105.733 143.798 104.961 150.925 102.01C158.051 99.0593 164.142 94.062 168.427 87.6503C172.713 81.2385 175 73.7004 175 65.9891C175 55.6485 170.891 45.7315 163.577 38.4196C156.263 31.1078 146.343 27 136 27V27ZM136 96.6938C129.927 96.6956 123.991 94.8972 118.94 91.5259C113.89 88.1546 109.953 83.3618 107.628 77.7537C105.302 72.1455 104.692 65.9739 105.875 60.0193C107.058 54.0646 109.98 48.5943 114.273 44.3002C118.566 40.0061 124.036 37.0809 129.991 35.8947C135.947 34.7085 142.121 35.3145 147.732 37.6361C153.343 39.9576 158.14 43.8905 161.515 48.9373C164.89 53.984 166.693 59.9181 166.695 65.9891C166.696 70.0201 165.903 74.0118 164.361 77.7364C162.819 81.461 160.558 84.8455 157.708 87.6967C154.858 90.5479 151.474 92.8099 147.749 94.3536C144.024 95.8974 140.032 96.6925 136 96.6938Z" fill="black"/>
</svg>
